<?xml version="1.0" encoding="UTF-8" standalone="no"?>
<svg width="109px" height="30px" viewBox="0 0 109 30" version="1.1" xmlns="http://www.w3.org/2000/svg" xmlns:xlink="http://www.w3.org/1999/xlink" xmlns:sketch="http://www.bohemiancoding.com/sketch/ns">
    <title>logo</title>
    <description>Created with Sketch (http://www.bohemiancoding.com/sketch)</description>
    <defs></defs>
    <g id="Page-8" stroke="none" stroke-width="1" fill="none" fill-rule="evenodd" sketch:type="MSPage">
        <g id="ESPIANS-+-Espians-Logo" sketch:type="MSLayerGroup">
            <g id="Espians-Logo" fill="#DF1C01" sketch:type="MSShapeGroup">
                <ellipse id="Oval-3" cx="7.77777778" cy="8.00847458" rx="7.77777778" ry="8.00847458"></ellipse>
                <ellipse id="Oval-3" cx="22.654321" cy="14.9364407" rx="7.34567901" ry="7.56355932"></ellipse>
                <ellipse id="Oval-3" cx="10.3703704" cy="23.5169492" rx="6.2962963" ry="6.48305085"></ellipse>
            </g>
            <path d="M44.82,9.515 L44.82,11.18 L39.225,11.18 L39.225,13.955 L44.25,13.955 L44.25,15.53 L39.225,15.53 L39.225,18.335 L45,18.335 L45,20 L37.455,20 L37.455,9.515 L44.82,9.515 Z M50.0330952,11.21 C49.7030936,11.420001 49.5380952,11.7374979 49.5380952,12.1625 C49.5380952,12.5875021 49.7030936,12.9124989 50.0330952,13.1375 C50.3630969,13.3625011 51.0655898,13.6049987 52.1405952,13.865 C53.2156006,14.1250013 54.0255925,14.4899976 54.5705952,14.96 C55.1155979,15.4300023 55.3880952,16.1224954 55.3880952,17.0375 C55.3880952,17.9525046 55.0430987,18.6949971 54.3530952,19.265 C53.6630918,19.8350028 52.7581008,20.12 51.6380952,20.12 C49.998087,20.12 48.5431016,19.5550056 47.2730952,18.425 L48.3830952,17.09 C49.4431005,18.0100046 50.5430895,18.47 51.6830952,18.47 C52.2530981,18.47 52.7055935,18.3475012 53.0405952,18.1025 C53.3755969,17.8574988 53.5430952,17.532502 53.5430952,17.1275 C53.5430952,16.722498 53.3855968,16.4075011 53.0705952,16.1825 C52.7555936,15.9574989 52.2130991,15.7525009 51.4430952,15.5675 C50.6730914,15.3824991 50.0880972,15.2125008 49.6880952,15.0575 C49.2880932,14.9024992 48.9330968,14.7000012 48.6230952,14.45 C48.0030921,13.9799976 47.6930952,13.2600048 47.6930952,12.29 C47.6930952,11.3199951 48.0455917,10.5725026 48.7505952,10.0475 C49.4555987,9.52249737 50.32809,9.26 51.3680952,9.26 C52.0380986,9.26 52.7030919,9.3699989 53.3630952,9.59 C54.0230985,9.8100011 54.5930928,10.119998 55.0730952,10.52 L54.1280952,11.855 C53.8180937,11.5749986 53.3980979,11.3450009 52.8680952,11.165 C52.3380926,10.9849991 51.8155978,10.895 51.3005952,10.895 C50.7855926,10.895 50.3630969,10.9999989 50.0330952,11.21 Z M65.5211904,10.43 C66.2511941,11.040003 66.6161904,11.9799936 66.6161904,13.25 C66.6161904,14.5200063 66.2436942,15.449997 65.4986904,16.04 C64.7536867,16.6300029 63.6111981,16.925 62.0711904,16.925 L60.2111904,16.925 L60.2111904,20 L58.4411904,20 L58.4411904,9.515 L62.0411904,9.515 C63.6311984,9.515 64.7911868,9.81999695 65.5211904,10.43 Z M64.2686904,14.7575 C64.6236922,14.3824981 64.8011904,13.8325036 64.8011904,13.1075 C64.8011904,12.3824964 64.5761927,11.8700015 64.1261904,11.57 C63.6761882,11.2699985 62.9711952,11.12 62.0111904,11.12 L60.2111904,11.12 L60.2111904,15.32 L62.2661904,15.32 C63.2461953,15.32 63.9136887,15.1325019 64.2686904,14.7575 Z M69.5642857,9.515 L71.3342857,9.515 L71.3342857,20 L69.5642857,20 L69.5642857,9.515 Z M76.5923809,17.615 L75.5423809,20 L73.6523809,20 L78.2723809,9.515 L80.1623809,9.515 L84.7823809,20 L82.8923809,20 L81.8423809,17.615 L76.5923809,17.615 Z M81.1223809,15.98 L79.2173809,11.66 L77.3123809,15.98 L81.1223809,15.98 Z M94.9604761,9.515 L96.7304761,9.515 L96.7304761,20 L94.8104761,20 L88.8704761,12.35 L88.8704761,20 L87.1004761,20 L87.1004761,9.515 L88.8704761,9.515 L94.9604761,17.345 L94.9604761,9.515 Z M102.408571,11.21 C102.07857,11.420001 101.913571,11.7374979 101.913571,12.1625 C101.913571,12.5875021 102.07857,12.9124989 102.408571,13.1375 C102.738573,13.3625011 103.441066,13.6049987 104.516071,13.865 C105.591077,14.1250013 106.401069,14.4899976 106.946071,14.96 C107.491074,15.4300023 107.763571,16.1224954 107.763571,17.0375 C107.763571,17.9525046 107.418575,18.6949971 106.728571,19.265 C106.038568,19.8350028 105.133577,20.12 104.013571,20.12 C102.373563,20.12 100.918578,19.5550056 99.6485713,18.425 L100.758571,17.09 C101.818577,18.0100046 102.918566,18.47 104.058571,18.47 C104.628574,18.47 105.08107,18.3475012 105.416071,18.1025 C105.751073,17.8574988 105.918571,17.532502 105.918571,17.1275 C105.918571,16.722498 105.761073,16.4075011 105.446071,16.1825 C105.13107,15.9574989 104.588575,15.7525009 103.818571,15.5675 C103.048567,15.3824991 102.463573,15.2125008 102.063571,15.0575 C101.663569,14.9024992 101.308573,14.7000012 100.998571,14.45 C100.378568,13.9799976 100.068571,13.2600048 100.068571,12.29 C100.068571,11.3199951 100.421068,10.5725026 101.126071,10.0475 C101.831075,9.52249737 102.703566,9.26 103.743571,9.26 C104.413575,9.26 105.078568,9.3699989 105.738571,9.59 C106.398575,9.8100011 106.968569,10.119998 107.448571,10.52 L106.503571,11.855 C106.19357,11.5749986 105.773574,11.3450009 105.243571,11.165 C104.713569,10.9849991 104.191074,10.895 103.676071,10.895 C103.161069,10.895 102.738573,10.9999989 102.408571,11.21 Z" id="ESPIANS" fill="#2B2B2B" sketch:type="MSShapeGroup"></path>
        </g>
    </g>
</svg>